<svg width="18" height="19" viewBox="0 0 18 19" fill="none" xmlns="http://www.w3.org/2000/svg">
<g id="icon / outlined / other / shop / shopping cart" clip-path="url(#clip0_138_486)">
<path id="Vector" d="M6.86986 16.7542C7.27968 16.7542 7.61191 16.4219 7.61191 16.0121C7.61191 15.6023 7.27968 15.2701 6.86986 15.2701C6.46004 15.2701 6.12781 15.6023 6.12781 16.0121C6.12781 16.4219 6.46004 16.7542 6.86986 16.7542Z" stroke="white" stroke-width="2" stroke-linecap="round" stroke-linejoin="round"/>
<path id="Vector_2" d="M15.0325 16.7542C15.4423 16.7542 15.7745 16.4219 15.7745 16.0121C15.7745 15.6023 15.4423 15.2701 15.0325 15.2701C14.6226 15.2701 14.2904 15.6023 14.2904 16.0121C14.2904 16.4219 14.6226 16.7542 15.0325 16.7542Z" stroke="white" stroke-width="2" stroke-linecap="round" stroke-linejoin="round"/>
<path id="Vector_3" d="M0.933472 1.17109H3.90168L5.89038 11.1072C5.95823 11.4488 6.14409 11.7557 6.41541 11.9741C6.68674 12.1925 7.02624 12.3085 7.37448 12.3019H14.5872C14.9355 12.3085 15.275 12.1925 15.5463 11.9741C15.8176 11.7557 16.0035 11.4488 16.0713 11.1072L17.2586 4.88135H4.64373" stroke="white" stroke-width="2" stroke-linecap="round" stroke-linejoin="round"/>
</g>
<defs>
<clipPath id="clip0_138_486">
<rect width="17.8092" height="17.8092" fill="white" transform="translate(0.191406 0.429039)"/>
</clipPath>
</defs>
</svg>
